# Blender v2.73 (sub 0) OBJ File: ''
# www.blender.org
mtllib bunnyRoom2.mtl
o Mesh
v 2.357574 3.143455 2.202668
v 2.357575 -0.235576 2.202668
v -1.969522 3.143454 2.202668
v -1.969522 -0.235576 2.202668
v 2.348269 3.143454 2.197784
v 2.348269 -0.235576 2.197784
v 2.348269 3.143454 -2.129313
v 2.348269 -0.235576 -2.129313
v -1.988780 -0.210689 2.197784
v 2.338317 -0.210689 2.197784
v -1.988780 -0.210689 -2.129313
v 2.338317 -0.210689 -2.129313
v -0.389549 1.278703 0.128029
v -0.225768 1.440093 0.178334
v -0.191136 1.575903 0.142003
v -0.338112 1.570875 0.146768
v 0.560138 1.118997 -0.130368
v 0.603877 1.254578 -0.064505
v 0.552442 1.164831 0.002623
v 0.546391 1.128924 0.138324
v 0.568644 1.323836 0.058554
v 0.468048 1.363452 -0.016480
v 0.261542 1.344591 -0.203677
v -0.175454 1.259091 -0.121623
v -0.191012 1.336726 0.000691
v 0.192105 1.456635 0.000149
v 0.042700 1.247792 -0.206190
v 0.220467 1.246124 -0.262920
v 0.036760 1.240218 0.209475
v 0.213818 1.239828 0.266103
v 0.261167 1.347327 0.195340
v 0.275277 0.826142 0.206097
v 0.196228 0.756009 0.241309
v 0.450310 0.758373 0.143208
v -0.326954 1.042805 0.109711
v -0.397639 1.016721 -0.010557
v -0.168999 0.887729 -0.042256
v -0.005069 0.881061 0.025214
v 0.164504 0.886266 0.007396
v 0.038628 0.961804 0.151956
v 0.381986 0.852992 -0.012031
v 0.183546 0.861641 0.077308
v -0.487600 1.308184 0.096258
v 0.456166 0.839723 0.110041
v 0.356308 0.758538 -0.071869
v 0.472887 0.759999 -0.119976
v 0.581061 0.965272 -0.079307
v 0.199503 0.756440 -0.242861
v -0.280154 1.419981 -0.119942
v -0.169237 1.572546 -0.160550
v -0.275694 1.381485 0.005059
v -0.403357 1.388938 -0.103552
v -0.361072 1.382952 -0.007749
v -0.285948 1.598008 -0.135639
v -0.461863 1.098972 -0.135185
v -0.287029 1.096782 -0.169132
v -0.295851 0.752130 -0.148017
v -0.174684 0.780516 -0.014021
v -0.215493 0.862598 -0.126560
v -0.135386 0.777511 -0.167840
v -0.137616 0.935073 -0.151886
v 0.042862 0.960764 -0.152907
v 0.285340 0.820709 -0.204178
v 0.249111 1.059410 -0.284293
v -0.058979 1.061703 -0.215129
v 0.156455 0.874501 -0.143664
v 0.113273 1.050543 -0.218142
v 0.159052 0.760971 -0.045702
v 0.601664 1.053515 0.058329
v 0.427621 0.758738 0.065335
v 0.024891 0.759908 0.129132
v -0.123304 1.269232 0.137637
v -0.318176 1.235858 0.180931
v -0.529750 1.084625 0.100210
v -0.143947 0.768660 0.159411
v 0.082830 1.073630 0.221376
v 0.180654 0.864326 0.172898
v -0.211300 0.866656 0.135499
v -0.141521 0.935816 0.154385
v -0.316265 1.242353 -0.185853
v -0.540037 1.295668 -0.065420
v -0.385753 1.280081 -0.133576
v 0.034910 0.897673 -0.059323
v -0.586624 1.080992 -0.050086
v -0.120359 1.032666 0.209016
v -0.181645 0.780111 0.008416
v -0.298731 0.752821 0.136345
v 0.023459 0.757269 -0.171254
v 0.249976 1.071862 0.284674
vt 0.000000 0.000000
vt 1.000000 0.000000
vt 1.000000 1.000000
vt 0.000000 1.000000
vt 0.233466 0.510016
vt 0.380879 0.601260
vt 0.379441 0.634722
vt 0.286444 0.631971
vt 0.857717 0.393423
vt 0.885392 0.467624
vt 0.852848 0.418507
vt 0.849020 0.398856
vt 0.863099 0.505528
vt 0.799449 0.527208
vt 0.668785 0.516887
vt 0.392282 0.470094
vt 0.402870 0.544689
vt 0.624850 0.578206
vt 0.530316 0.463910
vt 0.642795 0.462997
vt 0.526558 0.459765
vt 0.638589 0.459552
vt 0.668548 0.518384
vt 0.677476 0.233149
vt 0.627459 0.194766
vt 0.788225 0.196060
vt 0.214695 0.348805
vt 0.169971 0.334530
vt 0.396367 0.266854
vt 0.500091 0.263205
vt 0.607386 0.266053
vt 0.527740 0.307394
vt 0.744995 0.247843
vt 0.619434 0.252577
vt 0.174345 0.543663
vt 0.791930 0.240581
vt 0.728747 0.196150
vt 0.802510 0.196950
vt 0.870956 0.309292
vt 0.629531 0.195002
vt 0.346467 0.590253
vt 0.372865 0.600778
vt 0.349289 0.569185
vt 0.268512 0.573264
vt 0.295267 0.569988
vt 0.319450 0.646820
vt 0.120577 0.449597
vt 0.239957 0.378346
vt 0.316103 0.192643
vt 0.392769 0.208178
vt 0.366948 0.253100
vt 0.417635 0.206534
vt 0.416224 0.292765
vt 0.530419 0.306825
vt 0.683843 0.230175
vt 0.660920 0.360812
vt 0.465980 0.362067
vt 0.602293 0.259615
vt 0.574970 0.355959
vt 0.603936 0.197482
vt 0.883993 0.357586
vt 0.773869 0.196260
vt 0.519048 0.196900
vt 0.425280 0.475644
vt 0.290302 0.469054
vt 0.077623 0.441745
vt 0.412218 0.201690
vt 0.555708 0.368594
vt 0.617605 0.254046
vt 0.369601 0.255321
vt 0.413753 0.293171
vt 0.291511 0.472609
vt 0.141166 0.536813
vt 0.235868 0.510770
vt 0.525387 0.272297
vt 0.041637 0.439757
vt 0.427143 0.346176
vt 0.388365 0.207957
vt 0.314281 0.193022
vt 0.518142 0.195456
vt 0.661467 0.367627
vn -0.000000 -0.000000 -1.000000
vn 1.000000 0.000000 0.000000
vn 0.000000 1.000000 -0.000000
vn -0.569100 0.344800 0.746500
vn 0.034700 -0.070100 0.996900
vn 0.905900 -0.381600 0.183900
vn 0.824600 -0.554900 -0.110100
vn -0.451400 0.381600 0.806600
vn 0.025700 0.430100 -0.902400
vn 0.532200 0.793800 -0.294400
vn 0.961700 0.002400 0.274000
vn -0.258200 0.800500 -0.540900
vn -0.253800 0.808500 -0.530900
vn 0.273400 0.879200 -0.390200
vn -0.259800 0.606800 -0.751200
vn 0.445500 0.317700 -0.837000
vn -0.244300 0.572700 -0.782500
vn 0.549900 0.513900 -0.658400
vn -0.241200 0.605500 0.758400
vn 0.359000 0.062900 0.931200
vn -0.403100 -0.816200 0.413900
vn 0.080400 -0.853000 0.515700
vn -0.169800 -0.943100 -0.285900
vn -0.310000 -0.006400 0.950700
vn 0.469800 -0.229900 0.852300
vn 0.320100 -0.567600 0.758500
vn 0.446900 -0.284200 0.848200
vn 0.012800 -0.999900 0.000600
vn 0.761700 -0.611100 -0.215400
vn -0.782000 0.496900 0.376200
vn -0.108800 -0.090800 -0.989900
vn -0.109300 -0.854600 -0.507700
vn -0.717400 0.412800 0.561200
vn -0.019900 0.100400 -0.994700
vn 0.466100 -0.217100 -0.857700
vn -0.130900 0.360300 -0.923600
vn -0.370500 -0.437500 -0.819400
vn 0.107700 0.650900 0.751500
vn -0.097000 0.682200 0.724700
vn 0.990400 0.138000 0.009700
vn 0.472700 -0.218200 -0.853800
vn 0.006700 -1.000000 -0.006700
vn -0.006800 -0.999700 -0.024400
vn -0.049300 0.886000 0.461000
vn -0.008800 0.771200 0.636500
vn -0.706900 0.498700 -0.501500
vn -0.486300 0.230500 0.842800
vn 0.718200 -0.672000 0.180500
vn 0.561200 0.578300 0.592100
vn 0.427900 -0.592700 0.682300
vn -0.086400 0.523100 0.847900
vn -0.690800 0.718700 -0.079200
vn 0.383800 0.663600 0.642200
vn 0.853800 -0.013700 -0.520300
vn 0.466900 -0.880000 -0.087000
vn 0.417000 -0.020600 -0.908700
vn -0.227200 -0.092900 -0.969400
vn -0.383900 0.169400 -0.907700
vn -0.507100 0.220500 -0.833200
vn 0.506500 -0.849800 0.146000
vn -0.109400 0.615700 -0.780300
vn -0.524700 -0.846100 0.093900
vn -0.013900 0.055500 -0.998400
vn -0.430400 -0.099600 -0.897100
vn -0.302900 0.062400 -0.951000
vn 0.062900 -0.476900 -0.876700
vn -0.163700 0.301500 -0.939300
vn -0.512600 -0.342100 -0.787600
vn 0.497600 -0.864900 0.065400
vn -0.195200 -0.861800 -0.468200
vn -0.185700 0.233200 -0.954500
vn 0.790600 -0.576700 -0.205800
vn 0.411700 0.165700 -0.896100
vn 0.428400 0.830900 -0.355100
vn 0.869900 0.465800 0.162000
vn -0.425600 -0.296100 0.855100
vn -0.921500 0.179800 0.344300
vn -0.782500 -0.622600 -0.006200
vn -0.416400 -0.376000 0.827800
vn -0.416500 -0.050300 0.907700
vn 0.009200 0.029900 0.999500
vn -0.492200 0.413100 0.766200
vn -0.682400 0.520300 -0.513500
vn -0.205700 -0.924400 0.321400
vn 0.942000 -0.286900 -0.174400
vn -0.322300 -0.688900 -0.649200
vn 0.672300 -0.571400 -0.470600
vn 0.944100 -0.180500 -0.275900
vn -0.003700 0.808500 -0.588400
vn 0.183400 0.775500 -0.604100
vn -0.409400 0.660000 0.629900
vn -0.314800 0.540700 -0.780100
vn -0.006200 -0.534000 0.845500
vn -0.483800 -0.744500 -0.460000
vn -0.050800 -0.560700 -0.826500
vn 0.468900 -0.220300 -0.855400
vn -0.587600 0.520900 0.619200
vn -0.359100 0.255400 0.897700
vn 0.163300 -0.984700 0.061000
vn -0.525100 -0.554100 -0.646000
vn -0.902700 -0.429100 0.031200
vn 0.426600 0.315000 0.847800
vn 0.405900 0.186300 0.894700
vn -0.152200 -0.249800 -0.956300
vn 0.134600 0.530800 -0.836700
vn -0.359500 0.908000 0.215400
vn -0.288000 0.071200 0.955000
vn -0.113700 -0.339300 0.933800
vn 0.500900 -0.844600 -0.189100
vn -0.361600 0.729200 -0.581000
vn -0.291400 0.033000 0.956000
vn -0.338700 -0.318000 0.885500
vn 0.058500 -0.543100 0.837600
vn -0.244600 0.806500 0.538200
vn -0.253400 0.812100 0.525600
vn 0.316700 0.870900 0.375700
vn -0.115500 0.285600 0.951400
vn -0.441600 -0.393200 0.806500
vn 0.007300 -0.993200 -0.116000
vn -0.529200 -0.804200 0.270600
vn 0.116600 -0.987700 -0.104000
vn 0.694500 -0.718200 0.042800
vn 0.160700 0.286900 0.944400
vn 0.465900 -0.225600 0.855600
vn 0.652000 -0.272600 0.707500
vn -0.190300 -0.149700 -0.970300
vn 0.681200 -0.632600 -0.368600
vn 0.354800 -0.715500 -0.601800
vn -0.381000 0.087800 -0.920400
vn -0.341300 0.230300 -0.911300
vn -0.233900 -0.314300 -0.920100
vn 0.410000 0.001400 -0.912100
vn 0.203500 -0.819800 -0.535400
vn 0.010400 -0.982100 -0.188100
vn -0.958300 -0.024200 -0.284800
vn -0.568700 0.064800 -0.820000
vn -0.380900 0.188100 -0.905300
vn 0.276000 0.418200 0.865400
vn 0.397600 0.796700 -0.455100
vn -0.007400 -0.999300 0.037400
vn 0.000200 -0.999900 0.012100
vn -0.975200 -0.210300 0.068300
vn -0.046700 0.637800 -0.768800
vn -0.539100 0.835000 0.110200
vn -0.932300 0.222700 0.285100
vn -0.346800 -0.925300 0.153600
vn -0.548600 0.835100 -0.040100
vn -0.159100 0.129500 0.978700
vn 0.084200 -0.503500 0.859900
vn -0.353800 0.027200 0.934900
vn -0.304600 -0.016200 0.952300
vn 0.435800 0.353000 0.827900
vn -0.236300 0.596300 0.767200
usemtl initialShadingGroup
s off
f 1/1/1 2/2/1 4/3/1
f 6/2/2 8/3/2 7/4/2
f 10/2/3 12/3/3 11/4/3
f 3/4/1 1/1/1 4/3/1
f 5/1/2 6/2/2 7/4/2
f 9/1/3 10/2/3 11/4/3
usemtl initialShadingGroup_bunny.dds
f 13/5/4 14/6/4 15/7/4
f 13/5/5 15/7/5 16/8/5
f 17/9/6 18/10/6 19/11/6
f 18/10/7 20/12/7 19/11/7
f 21/13/8 22/14/8 20/12/8
f 17/9/9 22/14/9 18/10/9
f 18/10/10 22/14/10 21/13/10
f 20/12/11 18/10/11 21/13/11
f 23/15/12 24/16/12 25/17/12
f 23/15/13 25/17/13 26/18/13
f 23/15/14 26/18/14 22/14/14
f 27/19/15 24/16/15 23/15/15
f 17/9/16 28/20/16 23/15/16
f 28/20/17 27/19/17 23/15/17
f 22/14/18 17/9/18 23/15/18
f 29/21/19 30/22/19 31/23/19
f 32/24/20 33/25/20 34/26/20
f 35/27/21 36/28/21 37/29/21
f 38/30/22 39/31/22 40/32/22
f 41/33/23 42/34/23 39/31/23
f 13/5/24 16/8/24 43/35/24
f 20/12/25 32/24/25 44/36/25
f 41/33/26 45/37/26 46/38/26
f 19/11/27 41/33/27 47/39/27
f 48/40/28 46/38/28 45/37/28
f 49/41/29 50/42/29 51/43/29
f 52/44/30 53/45/30 54/46/30
f 49/41/31 52/44/31 54/46/31
f 36/28/32 55/47/32 56/48/32
f 57/49/33 58/50/33 59/51/33
f 60/52/34 61/53/34 62/54/34
f 63/55/35 64/56/35 17/9/35
f 65/57/36 56/48/36 24/16/36
f 66/58/37 67/59/37 64/56/37
f 45/37/38 66/58/38 68/60/38
f 51/43/39 50/42/39 53/45/39
f 17/9/40 19/11/40 47/39/40
f 41/33/41 19/11/41 69/61/41
f 34/26/42 33/25/42 70/62/42
f 70/62/43 33/25/43 71/63/43
f 72/64/44 25/17/44 73/65/44
f 51/43/45 13/5/45 73/65/45
f 53/45/46 43/35/46 16/8/46
f 73/65/47 13/5/47 74/66/47
f 38/30/48 40/32/48 75/67/48
f 31/23/49 20/12/49 22/14/49
f 39/31/50 76/68/50 40/32/50
f 32/24/51 77/69/51 33/25/51
f 37/29/52 78/70/52 79/71/52
f 73/65/53 25/17/53 51/43/53
f 70/62/54 41/33/54 44/36/54
f 41/33/55 63/55/55 47/39/55
f 56/48/56 80/72/56 24/16/56
f 50/42/57 49/41/57 54/46/57
f 81/73/58 82/74/58 55/47/58
f 80/72/59 55/47/59 82/74/59
f 83/75/60 58/50/60 60/52/60
f 66/58/61 63/55/61 48/40/61
f 45/37/62 39/31/62 66/58/62
f 67/59/63 65/57/63 27/19/63
f 64/56/64 67/59/64 27/19/64
f 64/56/65 27/19/65 28/20/65
f 61/53/66 65/57/66 62/54/66
f 57/49/67 59/51/67 60/52/67
f 66/58/68 64/56/68 63/55/68
f 83/75/69 38/30/69 58/50/69
f 55/47/70 36/28/70 84/76/70
f 82/74/71 52/44/71 49/41/71
f 51/43/72 82/74/72 49/41/72
f 64/56/73 28/20/73 17/9/73
f 46/38/74 63/55/74 41/33/74
f 20/12/75 69/61/75 19/11/75
f 35/27/76 85/77/76 73/65/76
f 74/66/77 43/35/77 84/76/77
f 39/31/78 42/34/78 77/69/78
f 79/71/79 85/77/79 35/27/79
f 76/68/80 29/21/80 72/64/80
f 79/71/81 75/67/81 40/32/81
f 77/69/82 71/63/82 33/25/82
f 86/78/83 87/79/83 78/70/83
f 74/66/84 36/28/84 35/27/84
f 14/6/85 51/43/85 15/7/85
f 70/62/86 42/34/86 41/33/86
f 41/33/87 69/61/87 44/36/87
f 44/36/88 34/26/88 70/62/88
f 82/74/89 51/43/89 80/72/89
f 51/43/90 24/16/90 80/72/90
f 58/50/91 61/53/91 59/51/91
f 88/80/92 66/58/92 48/40/92
f 41/33/93 39/31/93 45/37/93
f 36/28/94 61/53/94 37/29/94
f 67/59/95 62/54/95 65/57/95
f 47/39/96 63/55/96 17/9/96
f 68/60/97 66/58/97 88/80/97
f 37/29/98 58/50/98 38/30/98
f 58/50/99 57/49/99 60/52/99
f 61/53/100 36/28/100 56/48/100
f 77/69/101 76/68/101 39/31/101
f 32/24/102 34/26/102 44/36/102
f 20/12/103 30/22/103 89/81/103
f 70/62/104 71/63/104 42/34/104
f 15/7/105 51/43/105 53/45/105
f 43/35/106 53/45/106 52/44/106
f 13/5/107 43/35/107 74/66/107
f 74/66/108 35/27/108 73/65/108
f 86/78/109 38/30/109 75/67/109
f 78/70/110 38/30/110 86/78/110
f 79/71/111 78/70/111 75/67/111
f 76/68/112 32/24/112 89/81/112
f 85/77/113 40/32/113 76/68/113
f 72/64/114 31/23/114 26/18/114
f 72/64/115 26/18/115 25/17/115
f 31/23/116 22/14/116 26/18/116
f 76/68/117 72/64/117 85/77/117
f 77/69/118 32/24/118 76/68/118
f 78/70/119 37/29/119 38/30/119
f 79/71/120 35/27/120 37/29/120
f 86/78/121 75/67/121 87/79/121
f 14/6/122 13/5/122 51/43/122
f 85/77/123 72/64/123 73/65/123
f 20/12/124 89/81/124 32/24/124
f 20/12/125 44/36/125 69/61/125
f 56/48/126 55/47/126 80/72/126
f 60/52/127 62/54/127 83/75/127
f 62/54/128 67/59/128 39/31/128
f 59/51/129 61/53/129 60/52/129
f 27/19/130 65/57/130 24/16/130
f 65/57/131 61/53/131 56/48/131
f 63/55/132 46/38/132 48/40/132
f 83/75/133 62/54/133 39/31/133
f 38/30/134 83/75/134 39/31/134
f 58/50/135 37/29/135 61/53/135
f 81/73/136 55/47/136 84/76/136
f 81/73/137 52/44/137 82/74/137
f 53/45/138 50/42/138 54/46/138
f 51/43/139 25/17/139 24/16/139
f 45/37/140 68/60/140 88/80/140
f 45/37/141 88/80/141 48/40/141
f 66/58/142 39/31/142 67/59/142
f 16/8/143 15/7/143 53/45/143
f 43/35/144 52/44/144 81/73/144
f 43/35/145 81/73/145 84/76/145
f 36/28/146 74/66/146 84/76/146
f 71/63/147 77/69/147 42/34/147
f 78/70/148 87/79/148 75/67/148
f 85/77/149 79/71/149 40/32/149
f 76/68/150 89/81/150 30/22/150
f 76/68/151 30/22/151 29/21/151
f 30/22/152 20/12/152 31/23/152
f 29/21/153 31/23/153 72/64/153
