# Blender v2.73 (sub 0) OBJ File: ''
# www.blender.org
mtllib treeModel.mtl
o Plane_Plane.001
v -2.482715 0.000000 2.482715
v 2.482715 0.000000 2.482715
v -2.482715 0.000000 -2.482715
v 2.482715 0.000000 -2.482715
v -0.017157 0.635770 0.030066
v -0.002410 1.029531 0.057223
v -0.059500 1.029631 -0.013284
v 0.031473 0.000000 -0.044947
v 0.053001 0.000000 -0.014202
v -0.044947 -0.000000 0.031473
v -0.004782 0.000000 -0.054662
v 0.007564 -0.000063 -0.056772
v -0.031464 0.506114 -0.007376
v 0.016619 0.404562 -0.030826
v -0.038799 0.000000 -0.038799
v 0.013509 0.514735 0.028970
v 0.060456 1.029631 -0.007867
v -0.014202 1.029469 0.053001
v -0.054662 1.029469 -0.004782
v -0.044947 1.029469 0.031473
v -0.054662 0.000000 -0.004782
v -0.054596 -0.000063 -0.017307
v -0.036702 -0.000136 0.036867
v 0.023189 1.029469 0.049730
v 0.049730 1.029469 0.023190
v 0.012310 -0.000063 0.055935
v 0.053001 1.029469 -0.014201
v 0.023189 -0.000000 0.049730
v -0.014202 -0.000000 0.053001
v 0.031077 0.514735 0.002719
v 0.031473 1.029469 -0.044947
v 0.049730 -0.000000 0.023189
v 0.008886 1.029634 -0.051809
v -0.004782 1.029469 -0.054662
v 0.057223 -0.000063 -0.002410
v -0.021719 0.624907 -0.027472
v -0.038799 1.029469 -0.038799
v 0.144715 0.939919 -0.218859
v 0.263552 0.934678 -0.041911
v 0.049485 0.786041 -0.131321
v -0.035873 0.934926 -0.259374
v -0.206741 0.930096 -0.173222
v -0.251969 0.931615 0.023429
v -0.107381 0.762666 0.043362
v -0.140002 0.933729 0.225365
v 0.047855 0.940549 0.247734
v 0.218252 0.933491 0.156275
v 0.038045 0.802489 0.134080
v 0.032943 0.737221 -0.003121
v 0.120812 1.149792 -0.302403
v 0.232738 1.149039 -0.238302
v -0.004004 1.149340 -0.330088
v -0.123224 1.151242 -0.285874
v -0.223876 1.151150 -0.217620
v -0.304989 1.149507 -0.121955
v -0.348210 1.147509 0.003580
v -0.291025 1.150684 0.125218
v -0.238977 1.148167 0.244256
v -0.125369 1.148653 0.312714
v 0.004108 1.149790 0.325638
v 0.133016 1.148502 0.311173
v 0.235989 1.149377 0.230315
v 0.289497 1.151218 0.115109
v 0.325367 1.149817 -0.004115
v 0.304170 1.149260 -0.130305
v -0.190191 1.396520 -0.298032
v -0.064277 1.398640 -0.367491
v -0.313988 1.399824 -0.221020
v -0.349436 1.396993 -0.077368
v -0.353372 1.397094 0.062370
v -0.293193 1.395913 0.187375
v -0.193472 1.394893 0.277835
v -0.077846 1.397196 0.351243
v 0.062650 1.397322 0.355448
v 0.189301 1.396329 0.296504
v 0.300664 1.398007 0.210868
v 0.339460 1.395873 0.074732
v 0.365628 1.398436 -0.064025
v 0.315469 1.398709 -0.200336
v 0.209170 1.397703 -0.298436
v 0.080212 1.398200 -0.360195
v -0.316326 1.640725 -0.016900
v -0.295780 1.644046 -0.141991
v -0.304767 1.642580 0.107285
v -0.251569 1.646777 0.224853
v -0.134813 1.639570 0.282298
v -0.019118 1.647466 0.339222
v 0.111425 1.646736 0.318334
v 0.215477 1.642455 0.240183
v 0.303868 1.646731 0.146298
v 0.316422 1.640754 0.016910
v 0.304373 1.642459 -0.107165
v 0.243678 1.643782 -0.218355
v 0.144591 1.645666 -0.300662
v 0.017349 1.642090 -0.320959
v -0.114205 1.649528 -0.327445
v -0.230838 1.649536 -0.258837
v -0.115234 1.863883 0.242719
v -0.223704 1.853114 0.118780
v 0.032082 1.864393 0.258025
v 0.220501 1.865082 0.126267
v 0.265119 1.861316 0.013635
v 0.208102 1.855064 -0.137459
v 0.053095 1.853465 -0.245506
v -0.125233 1.860915 -0.237778
v -0.243002 1.852429 -0.056228
v -0.093593 2.006859 0.113565
v -0.108144 1.998225 -0.071872
v 0.050870 2.005540 0.120088
v 0.148965 2.009978 -0.014302
v 0.022710 2.015330 -0.118644
v 0.000007 2.067903 0.000062
vt 0.000000 0.000000
vt 0.156847 0.250000
vt 0.024394 0.250000
vt 0.062500 0.125000
vt 0.271741 0.250000
vt 0.190266 0.125000
vt 0.387862 0.250000
vt 0.515023 0.250000
vt 0.485473 0.125000
vt 0.661467 0.250000
vt 0.609637 0.125000
vt 0.780780 0.250000
vt 0.900603 0.250000
vt 0.815285 0.125000
vt 1.000000 0.250000
vt 0.886799 0.023598
vt 0.062500 0.375000
vt 0.000000 0.375000
vt 0.125000 0.375000
vt 0.187500 0.375000
vt 0.250000 0.375000
vt 0.312500 0.375000
vt 0.375000 0.375000
vt 0.437500 0.375000
vt 0.500000 0.375000
vt 0.562500 0.375000
vt 0.625000 0.375000
vt 0.687500 0.375000
vt 0.750000 0.375000
vt 0.812500 0.375000
vt 0.875000 0.375000
vt 0.937500 0.375000
vt 1.000000 0.375000
vt 0.062500 0.500000
vt 0.000000 0.500000
vt 0.125000 0.500000
vt 0.187500 0.500000
vt 0.250000 0.500000
vt 0.312500 0.500000
vt 0.375000 0.500000
vt 0.437500 0.500000
vt 0.500000 0.500000
vt 0.562500 0.500000
vt 0.625000 0.500000
vt 0.687500 0.500000
vt 0.750000 0.500000
vt 0.812500 0.500000
vt 0.875000 0.500000
vt 0.937500 0.500000
vt 1.000000 0.500000
vt 0.062500 0.625000
vt 0.000000 0.625000
vt 0.125000 0.625000
vt 0.187500 0.625000
vt 0.250000 0.625000
vt 0.312500 0.625000
vt 0.375000 0.625000
vt 0.437500 0.625000
vt 0.500000 0.625000
vt 0.562500 0.625000
vt 0.625000 0.625000
vt 0.687500 0.625000
vt 0.750000 0.625000
vt 0.812500 0.625000
vt 0.875000 0.625000
vt 0.937500 0.625000
vt 1.000000 0.625000
vt 0.125000 0.750000
vt 0.021786 0.750000
vt 0.214021 0.750000
vt 0.361032 0.750000
vt 0.437500 0.750000
vt 0.536672 0.750000
vt 0.659814 0.750000
vt 0.772427 0.750000
vt 0.907536 0.750000
vt 1.000000 0.750000
vt 0.062500 0.875000
vt 0.000000 0.875000
vt 0.125000 0.875000
vt 0.062500 0.750000
vt 0.256683 0.875000
vt 0.375000 0.875000
vt 0.312500 0.875000
vt 0.312500 0.750000
vt 0.437500 0.875000
vt 0.562500 0.875000
vt 0.500000 0.875000
vt 0.625000 0.875000
vt 0.562500 0.750000
vt 0.812500 0.875000
vt 0.750000 0.875000
vt 0.826468 0.972065
vt 0.812500 0.750000
vt 0.973479 0.928042
vt 0.937500 0.875000
vt 0.937500 0.750000
vt 0.000000 1.000000
vt 0.125000 0.125000
vt 0.062500 0.000000
vt 0.062500 1.000000
vt 0.125000 1.000000
vt 0.375000 0.125000
vt 0.312500 0.000000
vt 0.312500 1.000000
vt 0.375000 1.000000
vt 0.437500 1.000000
vt 0.459927 0.794854
vt 0.562500 0.125000
vt 0.500000 0.125000
vt 0.500000 0.000000
vt 0.500000 1.000000
vt 0.562500 1.000000
vt 0.750000 0.125000
vt 0.687500 0.000000
vt 0.687500 1.000000
vt 0.687500 0.875000
vt 0.720036 0.815073
vt 0.750000 1.000000
vt 0.000000 0.023598
vt 0.125000 0.250000
vt 0.437500 0.125000
vt 0.437500 0.250000
vt 0.562500 0.250000
vt 0.812500 0.125000
vt 0.812500 0.250000
vt 1.000000 0.125000
vt 0.937500 0.125000
vt 0.387761 0.618749
vt 0.387722 0.999375
vt 0.106212 0.999375
vt 0.116978 0.821394
vt 0.969846 0.328990
vt 0.413176 0.992404
vt 0.167833 0.000625
vt 0.276696 0.480297
vt 0.028750 0.329449
vt 0.750000 0.933013
vt 0.611111 0.500000
vt 0.668065 0.999375
vt 0.250000 0.933013
vt 0.883022 0.821394
vt 0.586824 0.992404
vt 0.969846 0.671010
vt 0.390055 0.000625
vt 0.555543 0.000688
vt 0.030154 0.671010
vt 0.030154 0.328990
vt 0.723389 0.000625
vt 0.250000 0.066987
vt 0.413176 0.007596
vt 0.750000 0.066987
vt 0.792127 0.509631
vt 0.586824 0.007596
vt 0.116978 0.178606
vt 0.973209 0.441355
vt 0.888889 0.998930
vt 0.883022 0.178606
vt 0.945611 0.000625
vt 1.000000 0.723869
vt 1.000000 0.999375
vt 0.000000 0.000625
vt 0.109153 0.616571
vn 0.000000 1.000000 0.000000
vn 0.628800 -0.640200 -0.441300
vn 0.194400 -0.573200 -0.796000
vn -0.298600 -0.714900 -0.632200
vn -0.739600 -0.652500 -0.165100
vn -0.718000 -0.566800 0.404000
vn -0.054200 -0.732400 0.678700
vn 0.355400 -0.609000 0.709100
vn 0.657500 -0.739200 0.145900
vn 0.399200 -0.587500 -0.703900
vn 0.152900 -0.719200 -0.677700
vn -0.286500 -0.600100 -0.746800
vn -0.401700 -0.697500 -0.593400
vn -0.669000 -0.470600 -0.575300
vn -0.677700 -0.693500 -0.244400
vn -0.650700 -0.686800 0.323900
vn -0.695000 -0.657900 0.290000
vn -0.392300 -0.645100 0.655700
vn -0.054400 -0.787100 0.614400
vn 0.093800 -0.469900 0.877700
vn 0.418300 -0.741400 0.524700
vn 0.716400 -0.618500 0.322900
vn 0.706900 -0.672000 0.220600
vn 0.842500 -0.520400 -0.139200
vn 0.572100 -0.728400 -0.376900
vn -0.329600 -0.712700 -0.619200
vn -0.450100 -0.554900 -0.699700
vn -0.655400 -0.734400 -0.176200
vn -0.744200 -0.667600 -0.020500
vn -0.652000 -0.693200 0.307300
vn -0.505200 -0.665500 0.549400
vn -0.449700 -0.522100 0.724700
vn -0.021700 -0.665400 0.746200
vn 0.307800 -0.672800 0.672700
vn 0.497500 -0.590500 0.635400
vn 0.673500 -0.710800 0.203100
vn 0.823500 -0.548500 0.145200
vn 0.697800 -0.668200 -0.258100
vn 0.482600 -0.707900 -0.515700
vn 0.323600 -0.656900 -0.681000
vn 0.035900 -0.660400 -0.750100
vn -0.782700 -0.605400 -0.144600
vn -0.841200 -0.533800 0.086300
vn -0.793500 -0.478500 0.376100
vn -0.365400 -0.655900 0.660500
vn -0.380100 -0.409600 0.829300
vn 0.122200 -0.607100 0.785100
vn 0.444800 -0.639300 0.627200
vn 0.640500 -0.503300 0.580100
vn 0.756800 -0.645400 0.103200
vn 0.838500 -0.537700 -0.088800
vn 0.735100 -0.541600 -0.407700
vn 0.523800 -0.558300 -0.643400
vn 0.141000 -0.615900 -0.775100
vn 0.020700 -0.423500 -0.905700
vn -0.405600 -0.600200 -0.689400
vn -0.652000 -0.648500 -0.392900
vn -0.744800 -0.097000 0.660200
vn -0.090000 -0.462600 0.882000
vn 0.543700 -0.319900 0.775900
vn 0.919600 -0.135000 0.368800
vn 0.823400 -0.487500 -0.290500
vn 0.549700 -0.287200 -0.784400
vn -0.049800 -0.172700 -0.983700
vn -0.789700 -0.314200 -0.526900
vn -0.979900 -0.167300 0.108700
vn -0.762500 0.646300 0.029700
vn 0.130900 0.425600 -0.895400
vn -0.027300 0.672300 0.739700
vn 0.708500 0.594800 -0.379700
vn 0.564700 0.701100 0.435300
vn 0.501600 0.647500 -0.573700
vn 0.733500 0.623800 0.269700
vn -0.307800 0.748300 -0.587600
vn 0.462300 0.587500 0.664200
vn -0.076000 0.702100 0.708000
vn -0.543300 0.839600 0.003500
vn 0.872000 0.485500 0.062200
vn 0.074400 0.815100 -0.574500
vn -0.012900 0.885000 0.465300
vn -0.283700 -0.883400 -0.373000
vn 0.451500 0.720000 -0.527100
vn 0.370700 0.879100 0.299600
vn -0.688500 0.591900 -0.419000
vn -0.390000 0.638800 -0.663100
vn 0.313500 0.889000 -0.333800
vn 0.775600 0.546800 -0.315300
vn -0.021200 -0.902500 0.430100
vn -0.727700 0.681500 0.077600
vn -0.267200 0.861200 -0.432500
vn 0.615300 -0.759800 -0.210000
vn 0.659300 0.749900 -0.053700
vn -0.380600 -0.807900 -0.449900
vn -0.645300 0.563600 0.515800
vn -0.671000 0.657900 -0.342000
vn -0.303200 -0.592700 0.746200
vn -0.008400 0.615900 -0.787800
vn 0.522100 -0.777600 0.350500
vn 0.452800 0.601100 -0.658500
vn 0.799200 0.287000 -0.528200
vn 0.196100 0.347600 -0.916900
vn -0.423400 0.389600 -0.817900
vn -0.935700 0.277800 -0.217400
vn -0.824200 0.339300 0.453400
vn -0.122900 0.191900 0.973700
vn 0.450100 0.377300 0.809400
vn 0.920800 0.327000 0.212400
vn 0.420200 0.542600 -0.727400
vn 0.176200 0.568100 -0.803800
vn -0.306900 0.435500 -0.846300
vn -0.471700 0.542700 -0.694900
vn -0.590000 0.642400 -0.489200
vn -0.692100 0.685000 -0.227400
vn -0.842800 0.374500 0.386500
vn -0.670800 0.674800 0.307600
vn -0.421800 0.581400 0.695800
vn -0.090100 0.504700 0.858600
vn 0.091400 0.647100 0.756900
vn 0.523900 0.522400 0.672800
vn 0.824700 0.410000 0.389600
vn 0.756300 0.616100 0.220300
vn 0.795800 0.590100 -0.136300
vn 0.680900 0.576600 -0.451600
vn -0.394600 0.598700 -0.697100
vn -0.325600 0.764600 -0.556200
vn -0.814000 0.548900 -0.190100
vn -0.733000 0.679900 -0.021100
vn -0.731300 0.580900 0.357500
vn -0.550100 0.567400 0.612800
vn -0.382300 0.719700 0.579600
vn -0.023200 0.655500 0.754900
vn 0.331600 0.630400 0.701900
vn 0.417400 0.718100 0.556800
vn 0.795700 0.565100 0.217900
vn 0.668100 0.730900 0.139500
vn 0.670700 0.699900 -0.245400
vn 0.531400 0.615400 -0.582200
vn 0.323000 0.669500 -0.669000
vn 0.038300 0.695500 -0.717500
vn -0.875200 0.465600 -0.131400
vn -0.776700 0.626700 0.062900
vn -0.607800 0.754400 0.248100
vn -0.389400 0.379700 0.839200
vn -0.299600 0.815100 0.495800
vn 0.127500 0.618400 0.775400
vn 0.512700 0.558600 0.652000
vn 0.426300 0.791800 0.437400
vn -0.777100 -0.014300 0.629200
vn -0.000000 -1.000000 -0.000000
vn -0.318100 0.067800 -0.945600
vn 0.227500 0.048800 0.972600
vn -0.948900 0.037200 0.313500
vn -0.965900 0.032400 0.256800
vn 0.069300 0.008500 0.997600
vn -0.362200 0.049600 0.930800
vn 0.830800 0.027200 0.556000
vn 0.920400 -0.001700 -0.391000
vn 0.849700 0.048400 -0.525100
vn -0.288800 -0.035700 -0.956700
vn -0.490800 -0.015300 -0.871200
vn 0.738100 0.026700 -0.674200
vn -0.582100 -0.089000 -0.808200
vn -0.757800 -0.047900 -0.650800
vn -0.535500 0.041000 -0.843500
vn 0.830500 -0.036000 0.555800
vn 0.792000 0.034100 0.609600
vn 0.647700 -0.052600 -0.760100
vn -0.876900 -0.041600 0.479000
vn 0.717300 -0.074600 0.692700
usemtl Mat_tree.dds
s off
f 2/1/1 4/1/1 3/1/1
f 38/2/2 39/3/2 40/4/2
f 41/5/3 38/2/3 40/6/3
f 42/7/4 41/5/4 40/6/4
f 43/8/5 42/7/5 44/9/5
f 45/10/6 43/8/6 44/11/6
f 46/12/7 45/10/7 44/11/7
f 47/13/8 46/12/8 48/14/8
f 39/15/9 47/13/9 49/16/9
f 50/17/10 51/18/10 39/3/10
f 50/17/11 39/3/11 52/19/11
f 53/20/12 52/19/12 38/2/12
f 54/21/13 53/20/13 38/2/13
f 55/22/14 54/21/14 41/5/14
f 56/23/15 55/22/15 41/5/15
f 57/24/16 56/23/16 42/7/16
f 58/25/17 57/24/17 42/7/17
f 59/26/18 58/25/18 43/8/18
f 60/27/19 59/26/19 43/8/19
f 61/28/20 60/27/20 45/10/20
f 62/29/21 61/28/21 45/10/21
f 63/30/22 62/29/22 46/12/22
f 64/31/23 63/30/23 46/12/23
f 65/32/24 64/31/24 47/13/24
f 51/33/25 65/32/25 47/13/25
f 66/34/26 67/35/26 51/18/26
f 68/36/27 66/34/27 50/17/27
f 69/37/28 68/36/28 52/19/28
f 70/38/29 69/37/29 53/20/29
f 71/39/30 70/38/30 54/21/30
f 72/40/31 71/39/31 55/22/31
f 73/41/32 72/40/32 56/23/32
f 74/42/33 73/41/33 57/24/33
f 75/43/34 74/42/34 58/25/34
f 76/44/35 75/43/35 59/26/35
f 77/45/36 76/44/36 60/27/36
f 78/46/37 77/45/37 61/28/37
f 79/47/38 78/46/38 62/29/38
f 80/48/39 79/47/39 63/30/39
f 81/49/40 80/48/40 64/31/40
f 67/50/41 81/49/41 65/32/41
f 82/51/42 83/52/42 67/35/42
f 84/53/43 82/51/43 66/34/43
f 85/54/44 84/53/44 68/36/44
f 86/55/45 85/54/45 69/37/45
f 87/56/46 86/55/46 70/38/46
f 88/57/47 87/56/47 71/39/47
f 89/58/48 88/57/48 72/40/48
f 90/59/49 89/58/49 73/41/49
f 91/60/50 90/59/50 74/42/50
f 92/61/51 91/60/51 75/43/51
f 93/62/52 92/61/52 76/44/52
f 94/63/53 93/62/53 77/45/53
f 95/64/54 94/63/54 78/46/54
f 96/65/55 95/64/55 79/47/55
f 97/66/56 96/65/56 80/48/56
f 83/67/57 97/66/57 81/49/57
f 98/68/58 99/69/58 82/51/58
f 100/70/59 98/68/59 84/53/59
f 101/71/60 100/70/60 86/55/60
f 102/72/61 101/71/61 88/57/61
f 103/73/62 102/72/62 89/58/62
f 104/74/63 103/73/63 91/60/63
f 105/75/64 104/74/64 93/62/64
f 106/76/65 105/75/65 95/64/65
f 99/77/66 106/76/66 97/66/66
f 107/78/67 108/79/67 99/69/67
f 95/80/68 105/78/68 94/81/68
f 109/82/69 107/80/69 98/68/69
f 93/83/70 104/84/70 92/85/70
f 110/86/71 109/83/71 101/71/71
f 111/87/72 110/88/72 103/73/72
f 102/89/73 110/87/73 101/90/73
f 108/91/74 111/92/74 105/75/74
f 101/93/75 109/91/75 100/94/75
f 100/95/76 109/96/76 98/97/76
f 112/98/77 108/79/77 107/78/77
f 91/99/78 103/4/78 90/100/78
f 96/101/79 106/78/79 95/80/79
f 112/102/80 107/80/80 109/82/80
f 44/103/81 40/6/81 49/104/81
f 94/105/82 105/84/82 93/83/82
f 112/106/83 109/83/83 110/86/83
f 106/107/84 108/86/84 105/108/84
f 97/109/85 106/110/85 96/111/85
f 112/112/86 110/88/86 111/87/86
f 103/113/87 110/87/87 102/89/87
f 48/114/88 44/11/88 49/115/88
f 99/116/89 108/117/89 106/118/89
f 112/119/90 111/92/90 108/91/90
f 40/4/91 39/3/91 49/120/91
f 92/99/92 104/121/92 91/4/92
f 44/103/93 42/7/93 40/6/93
f 98/122/94 107/123/94 99/103/94
f 83/109/95 99/124/95 97/110/95
f 48/114/96 46/12/96 44/11/96
f 105/125/97 111/126/97 104/114/97
f 49/16/98 47/13/98 48/14/98
f 104/127/99 111/15/99 103/128/99
f 52/19/100 39/3/100 38/2/100
f 41/5/101 54/21/101 38/2/101
f 42/7/102 56/23/102 41/5/102
f 43/8/103 58/25/103 42/7/103
f 45/10/104 60/27/104 43/8/104
f 46/12/105 62/29/105 45/10/105
f 47/13/106 64/31/106 46/12/106
f 39/15/107 51/33/107 47/13/107
f 50/17/108 66/34/108 51/18/108
f 52/19/109 68/36/109 50/17/109
f 53/20/110 69/37/110 52/19/110
f 54/21/111 70/38/111 53/20/111
f 55/22/112 71/39/112 54/21/112
f 56/23/113 72/40/113 55/22/113
f 57/24/114 73/41/114 56/23/114
f 58/25/115 74/42/115 57/24/115
f 59/26/116 75/43/116 58/25/116
f 60/27/117 76/44/117 59/26/117
f 61/28/118 77/45/118 60/27/118
f 62/29/119 78/46/119 61/28/119
f 63/30/120 79/47/120 62/29/120
f 64/31/121 80/48/121 63/30/121
f 65/32/122 81/49/122 64/31/122
f 51/33/123 67/50/123 65/32/123
f 66/34/124 82/51/124 67/35/124
f 68/36/125 84/53/125 66/34/125
f 69/37/126 85/54/126 68/36/126
f 70/38/127 86/55/127 69/37/127
f 71/39/128 87/56/128 70/38/128
f 72/40/129 88/57/129 71/39/129
f 73/41/130 89/58/130 72/40/130
f 74/42/131 90/59/131 73/41/131
f 75/43/132 91/60/132 74/42/132
f 76/44/133 92/61/133 75/43/133
f 77/45/134 93/62/134 76/44/134
f 78/46/135 94/63/135 77/45/135
f 79/47/136 95/64/136 78/46/136
f 80/48/137 96/65/137 79/47/137
f 81/49/138 97/66/138 80/48/138
f 67/50/139 83/67/139 81/49/139
f 82/51/140 99/69/140 83/52/140
f 84/53/141 98/68/141 82/51/141
f 85/54/142 100/70/142 84/53/142
f 86/55/143 100/70/143 85/54/143
f 87/56/144 101/71/144 86/55/144
f 88/57/145 101/71/145 87/56/145
f 89/58/146 102/72/146 88/57/146
f 90/59/147 103/73/147 89/58/147
f 1/1/1 2/1/1 3/1/1
usemtl Mat
f 5/129/148 6/130/148 7/131/148
f 8/132/149 9/35/149 10/133/149
f 11/134/149 8/132/149 10/133/149
f 12/135/150 13/136/150 14/137/150
f 15/138/149 11/134/149 10/133/149
f 5/129/151 16/139/151 17/140/151
f 18/141/1 19/142/1 20/143/1
f 21/144/149 15/138/149 10/133/149
f 22/145/152 23/146/152 13/136/152
f 23/146/153 5/129/153 13/136/153
f 24/147/1 19/142/1 18/141/1
f 16/139/154 5/129/154 23/146/154
f 25/148/1 19/142/1 24/147/1
f 26/149/155 16/139/155 23/146/155
f 27/150/1 19/142/1 25/148/1
f 28/151/149 29/152/149 10/133/149
f 26/149/156 30/153/156 16/139/156
f 31/154/1 19/142/1 27/150/1
f 32/155/149 28/151/149 10/133/149
f 14/156/157 33/157/157 30/153/157
f 34/158/1 19/142/1 31/154/1
f 9/35/149 32/155/149 10/133/149
f 35/159/158 14/156/158 30/153/158
f 14/156/159 36/160/159 33/157/159
f 36/160/160 7/161/160 33/157/160
f 37/50/1 19/142/1 34/158/1
f 35/162/161 12/135/161 14/137/161
f 14/137/162 13/136/162 36/163/162
f 36/163/163 13/136/163 7/131/163
f 12/135/164 22/145/164 13/136/164
f 16/139/165 30/153/165 17/140/165
f 26/149/166 35/159/166 30/153/166
f 30/153/167 33/157/167 17/140/167
f 13/136/168 5/129/168 7/131/168
f 6/130/169 5/129/169 17/140/169
